<?xml version="1.0" encoding="UTF-8"?>
<svg width="61px" height="18px" viewBox="0 0 61 18" version="1.1" xmlns="http://www.w3.org/2000/svg" xmlns:xlink="http://www.w3.org/1999/xlink">
    <!-- Generator: sketchtool 52.2 (67145) - http://www.bohemiancoding.com/sketch -->
    <title>66FCC8DA-6707-4769-8A38-4A9D843BA330</title>
    <desc>Created with sketchtool.</desc>
    <g id="Updated-UI" stroke="none" stroke-width="1" fill="none" fill-rule="evenodd">
        <g id="Homepage---Dashboard_v1" transform="translate(-782.000000, -29.000000)" fill="#FFFFFF">
            <g id="Group-8" transform="translate(782.000000, 29.000000)">
                <g id="Group-2">
                    <g id="Group-13">
                        <text id="Add" font-family="Avenir-Heavy, Avenir" font-size="14" font-weight="600">
                            <tspan x="29.32" y="14">ADD</tspan>
                        </text>
                        <g id="add">
                            <path d="M12,18 L6,18 C2.6862915,18 2.96059473e-16,15.3137085 0,12 L0,6 C-2.96059473e-16,2.6862915 2.6862915,5.92118946e-16 6,0 L12,0 C15.3137085,2.96059473e-16 18,2.6862915 18,6 L18,12 C18,15.3137085 15.3137085,18 12,18 Z M6,1.33333333 C3.42267117,1.33333333 1.33333333,3.42267117 1.33333333,6 L1.33333333,12 C1.33333333,14.5773288 3.42267117,16.6666667 6,16.6666667 L12,16.6666667 C14.5773288,16.6666667 16.6666667,14.5773288 16.6666667,12 L16.6666667,6 C16.6666667,3.42267117 14.5773288,1.33333333 12,1.33333333 L6,1.33333333 Z" id="Shape" fill-rule="nonzero"></path>
                            <path d="M9,13.78 C8.63181017,13.78 8.33333333,13.4815232 8.33333333,13.1133333 L8.33333333,4.88666667 C8.33333333,4.51847683 8.63181017,4.22 9,4.22 C9.36818983,4.22 9.66666667,4.51847683 9.66666667,4.88666667 L9.66666667,13.1133333 C9.66666667,13.4815232 9.36818983,13.78 9,13.78 Z" id="Path"></path>
                            <path d="M13.1133333,9.66666667 L4.88666667,9.66666667 C4.51847683,9.66666667 4.22,9.36818983 4.22,9 C4.22,8.63181017 4.51847683,8.33333333 4.88666667,8.33333333 L13.1133333,8.33333333 C13.4815232,8.33333333 13.78,8.63181017 13.78,9 C13.78,9.36818983 13.4815232,9.66666667 13.1133333,9.66666667 Z" id="Path"></path>
                        </g>
                    </g>
                </g>
            </g>
        </g>
    </g>
</svg>