<svg xmlns="http://www.w3.org/2000/svg" width="32" height="27" viewBox="0 0 32 27">
    <g fill="#242A3E" fill-rule="evenodd">
        <path fill-rule="nonzero" d="M31.484 13.42H5.677v-1.033c0-.285-.23-.516-.516-.516h-.516v-1.548h1.032v.516c0 .285.231.516.517.516.285 0 .516-.231.516-.516V8.774c0-.285-.231-.516-.516-.516-.286 0-.517.231-.517.516v.516H4.645V3.097c.001-1.14.925-2.064 2.065-2.065h2.064c1.14.001 2.064.925 2.065 2.065v.044c-1.49.253-2.579 1.542-2.58 3.053 0 .285.23.516.515.516h5.161c.286 0 .517-.231.517-.516-.002-1.51-1.092-2.8-2.581-3.053v-.044C11.869 1.387 10.484.002 8.774 0H6.71C5 .002 3.615 1.387 3.613 3.097v8.774h-.516c-.285 0-.516.231-.516.516v1.032H.516c-.285 0-.516.231-.516.516v1.549c0 .285.231.516.516.516h1.549v6.194c.002 1.51 1.091 2.799 2.58 3.052v1.077c0 .285.231.516.516.516.285 0 .516-.231.516-.516V25.29h20.646v1.033c0 .285.23.516.516.516.285 0 .516-.231.516-.516v-1.077c1.489-.253 2.578-1.542 2.58-3.052V16h1.549c.285 0 .516-.231.516-.516v-1.549c0-.285-.231-.516-.516-.516zm-20.13-9.291c.942.001 1.764.638 2 1.548H9.355c.237-.91 1.059-1.547 2-1.548zm-7.741 8.774h1.032v.516H3.613v-.516zm25.29 9.29c0 1.14-.925 2.064-2.064 2.065H5.16c-1.14-.001-2.063-.925-2.064-2.064V16h25.806v6.194zm2.065-7.225H1.032v-.516h29.936v.516z"/>
        <path d="M4.645 18.065h4.13c.284 0 .515-.232.515-.517 0-.285-.23-.516-.516-.516H4.645c-.285 0-.516.231-.516.516 0 .285.231.517.516.517zM10.323 18.065h.516c.285 0 .516-.232.516-.517 0-.285-.231-.516-.516-.516h-.516c-.285 0-.517.231-.517.516 0 .285.232.517.517.517z"/>
    </g>
</svg>
