<svg xmlns="http://www.w3.org/2000/svg" width="36" height="26" viewBox="0 0 36 26">
    <path fill="#242A3E" d="M35.42 19.161h-.581v-4.645c-.002-1.282-1.04-2.32-2.323-2.322V2.323C32.514 1.04 31.476.002 30.194 0H5.806c-1.282.002-2.32 1.04-2.322 2.323v9.87c-1.282.002-2.321 1.041-2.323 2.323v4.645h-.58c-.321 0-.581.26-.581.58v2.324c0 .32.26.58.58.58h.581v2.323c0 .32.26.58.58.58h1.743c.277 0 .515-.195.569-.466l.488-2.437h26.918l.488 2.437c.054.271.292.467.57.466h1.741c.32 0 .58-.26.58-.58v-2.323h.581c.321 0 .581-.26.581-.58v-2.323c0-.32-.26-.58-.58-.58zM4.644 2.323c.001-.641.52-1.16 1.161-1.162h24.388c.64.001 1.16.52 1.16 1.162v9.87h-1.16V9.872c-.002-1.282-1.041-2.32-2.323-2.323h-6.968c-1.282.002-2.32 1.04-2.322 2.323v2.323h-1.162V9.87c-.001-1.282-1.04-2.32-2.322-2.323H8.129c-1.282.002-2.32 1.04-2.323 2.323v2.323h-1.16V2.323zM29.032 9.87v2.323h-9.29V9.87c0-.641.52-1.16 1.161-1.161h6.968c.641 0 1.16.52 1.161 1.161zm-12.774 0v2.323h-9.29V9.87c0-.641.52-1.16 1.161-1.161h6.968c.64 0 1.16.52 1.161 1.161zM2.323 14.516c0-.64.52-1.16 1.16-1.161h29.033c.641 0 1.16.52 1.161 1.161v4.645H2.323v-4.645zm.685 9.871h-.685v-1.742h1.033l-.348 1.742zm30.67 0h-.686l-.348-1.742h1.033v1.742zm1.16-2.903H1.162v-1.161H34.84v1.16z"/>
</svg>
