<svg xmlns="http://www.w3.org/2000/svg" width="32" height="32" viewBox="0 0 32 32">
    <g fill="none" fill-rule="evenodd">
        <path d="M0 0H32V32H0z"/>
        <g fill="#242A3E" fill-rule="nonzero">
            <path d="M7.828 18.242c-.22 0-.44-.019-.66-.037-.238-.037-.458-.073-.678-.11-.22-.055-.422-.092-.605-.147-.183-.055-.312-.11-.422-.146l.349-1.449c.201.092.458.184.788.275.312.092.715.147 1.173.147.532 0 .935-.11 1.192-.312.257-.201.367-.476.367-.825 0-.22-.037-.385-.129-.531-.091-.147-.22-.257-.366-.349-.165-.091-.349-.146-.55-.183-.22-.037-.44-.055-.679-.055H6.93v-1.412h.77c.165 0 .33-.018.495-.055.165-.036.312-.091.422-.165.128-.073.22-.183.293-.311.073-.129.11-.294.11-.495 0-.147-.037-.275-.092-.385-.055-.11-.146-.202-.238-.275-.092-.074-.22-.129-.348-.165-.129-.037-.257-.055-.385-.055-.33 0-.642.055-.935.146-.294.11-.55.22-.789.367l-.623-1.283c.128-.074.275-.165.44-.239.165-.091.348-.165.55-.238.202-.073.422-.128.642-.183.238-.055.476-.074.733-.074.477 0 .88.055 1.228.165.349.11.642.275.862.477.22.202.403.44.495.733.11.275.165.587.165.899 0 .311-.092.623-.275.935-.183.293-.422.531-.733.678.421.165.751.422.971.77.239.348.349.752.349 1.228 0 .367-.055.715-.184 1.045-.128.312-.311.587-.586.825-.275.239-.605.404-1.009.532-.385.202-.861.257-1.43.257zm4.804-6.6c.22-.092.458-.202.715-.33.238-.129.495-.257.715-.404.238-.146.458-.293.678-.458.22-.165.403-.33.587-.513h1.228v8.121h-1.742v-5.83c-.238.165-.495.294-.788.422-.293.128-.568.238-.843.33l-.55-1.338zm1.246-8.177V1.852H8.122v1.613h5.756z" transform="translate(5 5)"/>
            <path d="M19.892 1.888c-.422-.073-.844-.036-1.265-.055h-1.669v-.77c0-.641-.495-1.063-1.063-.898-.348.092-.587.385-.605.733-.018.44 0 .899 0 1.339 0 .458-.018.916 0 1.356.018.385.33.715.697.752.421.055.788-.165.916-.55.037-.11.055-.22.055-.348h2.384c.641 0 .99.348.99.99v1.65H1.687v-1.65c0-.642.348-.99.99-.99H5.06c0 .11.018.238.055.348.128.385.495.605.917.55.366-.037.696-.367.696-.752.019-.458 0-.916 0-1.356V.898C6.71.55 6.472.257 6.123.165 5.555 0 5.06.403 5.06 1.063v.77H3.392c-.422.019-.844-.018-1.265.055C.843 2.108 0 3.153 0 4.473V19.58c0 1.522 1.1 2.622 2.622 2.622H19.36c1.522 0 2.622-1.119 2.622-2.622V4.473c.018-1.32-.825-2.365-2.09-2.585zm.421 17.655c0 .642-.348.99-.99.99H2.677c-.642 0-.99-.348-.99-.99V7.48h18.626v12.063z" transform="translate(5 5)"/>
        </g>
    </g>
</svg>
