<svg xmlns="http://www.w3.org/2000/svg" width="24" height="24" viewBox="0 0 24 24">
    <g fill="none" fill-rule="evenodd">
        <path d="M0 0H24V24H0z"/>
        <path fill="#242A3E" fill-rule="nonzero" d="M18.667 3.667H5.333c-.916 0-1.658.75-1.658 1.666l-.008 15L7 17h11.667c.916 0 1.666-.75 1.666-1.667v-10c0-.916-.75-1.666-1.666-1.666zM7.833 9.5h8.334c.458 0 .833.375.833.833 0 .459-.375.834-.833.834H7.833c-.458 0-.833-.375-.833-.834 0-.458.375-.833.833-.833zm5 4.167h-5c-.458 0-.833-.375-.833-.834 0-.458.375-.833.833-.833h5c.459 0 .834.375.834.833 0 .459-.375.834-.834.834zm3.334-5H7.833c-.458 0-.833-.375-.833-.834C7 7.375 7.375 7 7.833 7h8.334c.458 0 .833.375.833.833 0 .459-.375.834-.833.834z"/>
    </g>
</svg>
