<?xml version="1.0" encoding="UTF-8"?>
<svg width="20px" height="20px" viewBox="0 0 20 20" version="1.1" xmlns="http://www.w3.org/2000/svg" xmlns:xlink="http://www.w3.org/1999/xlink">
    <!-- Generator: sketchtool 52.2 (67145) - http://www.bohemiancoding.com/sketch -->
    <title>D1DE68C4-F47C-4073-8243-4114B170D9CB</title>
    <desc>Created with sketchtool.</desc>
    <g id="Updated-UI" stroke="none" stroke-width="1" fill="none" fill-rule="evenodd">
        <g id="Add-Package---&gt;-Route-&amp;-Stay" transform="translate(-950.000000, -378.000000)" fill="#242A3E">
            <g id="arrow-(1)" transform="translate(960.000000, 388.000000) scale(-1, 1) translate(-960.000000, -388.000000) translate(950.000000, 378.000000)">
                <path d="M10,19.9583333 C4.5,19.9583333 0.0416666667,15.5 0.0416666667,10 C0.0416666667,4.5 4.5,0.0416666667 10,0.0416666667 C15.5,0.0416666667 19.9583333,4.5 19.9583333,10 C19.9583333,15.5 15.5,19.9583333 10,19.9583333 Z M10,1.125 C5.125,1.125 1.125,5.125 1.125,10 C1.125,14.875 5.125,18.875 10,18.875 C14.875,18.875 18.875,14.875 18.875,10 C18.875,5.125 14.875,1.125 10,1.125 Z" id="Fill-25" fill-rule="nonzero"></path>
                <polyline id="Fill-26" points="10.2083333 15.7083333 4.5 10 10.2083333 4.29166667 10.9583333 5.08333333 6.08333333 10 10.9583333 14.9166667 10.2083333 15.7083333"></polyline>
                <polygon id="Fill-27" points="5.29166667 9.41666667 15.2916667 9.41666667 15.2916667 10.5833333 5.29166667 10.5833333"></polygon>
            </g>
        </g>
    </g>
</svg>