<svg xmlns="http://www.w3.org/2000/svg" width="211" height="224" viewBox="0 0 211 224">
    <g fill="none" fill-rule="evenodd">
        <path fill="#FCFCFC" d="M0 0H1366V1102H0z" transform="translate(-1155 -634)"/>
        <g fill="#000">
            <path fill-rule="nonzero" d="M12 24C5.383 24 0 18.617 0 12S5.383 0 12 0s12 5.383 12 12-5.383 12-12 12zm0-22.286C6.328 1.714 1.714 6.328 1.714 12S6.328 22.286 12 22.286 22.286 17.672 22.286 12 17.672 1.714 12 1.714z" transform="translate(-1155 -634) translate(1255 734)"/>
            <path d="M16.286 17.143c-.22 0-.439-.084-.606-.251L7.108 8.32c-.335-.335-.335-.877 0-1.212.335-.334.878-.335 1.212 0l8.572 8.572c.335.335.335.877 0 1.212-.168.167-.387.25-.606.25z" transform="translate(-1155 -634) translate(1255 734)"/>
            <path d="M7.714 17.143c-.22 0-.438-.084-.606-.251-.335-.335-.335-.878 0-1.212l8.572-8.572c.335-.335.877-.335 1.212 0 .334.335.335.878 0 1.212L8.32 16.892c-.167.167-.386.25-.606.25z" transform="translate(-1155 -634) translate(1255 734)"/>
        </g>
    </g>
</svg>
