<svg xmlns="http://www.w3.org/2000/svg" width="32" height="32" viewBox="0 0 32 32">
    <g fill="#242A3E" fill-rule="evenodd">
        <path fill-rule="nonzero" d="M25.067 0H6.933C6.64 0 6.4.239 6.4.533v30.934c0 .294.239.533.533.533h18.134c.294 0 .533-.239.533-.533V.533C25.6.24 25.36 0 25.067 0zm-.534 30.933H7.467V1.067h17.066v29.866z"/>
        <path d="M31.467 30.933H.533c-.294 0-.533.24-.533.534 0 .294.239.533.533.533h30.934c.294 0 .533-.239.533-.533 0-.295-.239-.534-.533-.534zM13.333 16.533H11.2c-.294 0-.533.24-.533.534 0 .294.239.533.533.533h2.133c.295 0 .534-.239.534-.533 0-.295-.24-.534-.534-.534z"/>
        <path fill-rule="nonzero" d="M20.8 4.267h-9.6c-.294 0-.533.239-.533.533v10.133c0 .295.239.534.533.534h9.6c.294 0 .533-.24.533-.534V4.8c0-.294-.239-.533-.533-.533zM20.267 14.4h-8.534V5.333h8.534V14.4zM20.8 18.667h-9.6c-.294 0-.533.239-.533.533v10.133c0 .295.239.534.533.534h9.6c.294 0 .533-.24.533-.534V19.2c0-.294-.239-.533-.533-.533zM20.267 28.8h-8.534v-9.067h8.534V28.8z"/>
    </g>
</svg>
