<svg xmlns="http://www.w3.org/2000/svg" width="32" height="32" viewBox="0 0 32 32">
    <g fill="none" fill-rule="evenodd">
        <path d="M0 0H32V32H0z"/>
        <path fill="#000" fill-rule="nonzero" d="M25.517 8.711H6.483C5.112 8.711 4 9.863 4 11.283v13.714c0 1.42 1.112 2.572 2.483 2.572h19.034c1.371 0 2.483-1.152 2.483-2.572V11.283c0-1.42-1.112-2.572-2.483-2.572zm-6.074 10.286c.197-.002.375.119.453.306.078.187.04.405-.097.551l-3.443 3.755c-.092.101-.221.159-.356.159-.135 0-.264-.058-.356-.16l-3.443-3.754c-.136-.146-.175-.364-.097-.55.078-.188.256-.309.453-.307h1.324V14.19c0-.28.219-.506.489-.506h3.26c.27 0 .489.226.489.506v4.782l1.324.026zM7.583 6.714H23.59c.457 0 .828-.383.828-.857 0-.473-.371-.857-.828-.857H7.583c-.457 0-.827.384-.827.857 0 .474.37.857.827.857z"/>
    </g>
</svg>
