<svg xmlns="http://www.w3.org/2000/svg" width="32" height="32" viewBox="0 0 32 32">
    <g fill="none" fill-rule="evenodd">
        <path d="M0 0H32V32H0z"/>
        <path fill="#242A3E" fill-rule="nonzero" d="M28.308 2.667H12.923c-.566 0-1.026.459-1.026 1.025v8.205H3.692c-.566 0-1.025.46-1.025 1.026v15.385c0 .566.459 1.025 1.025 1.025h15.385c.566 0 1.026-.459 1.026-1.025v-8.205h8.205c.566 0 1.025-.46 1.025-1.026V3.692c0-.566-.459-1.025-1.025-1.025zM18.05 27.282H4.718V13.95H18.05v13.333zm9.231-9.23h-7.18v-5.129c0-.566-.459-1.026-1.025-1.026h-5.128v-7.18h13.333v13.334z"/>
    </g>
</svg>
