<svg xmlns="http://www.w3.org/2000/svg" width="32" height="32" viewBox="0 0 32 32">
    <g fill="none" fill-rule="evenodd">
        <path d="M0 0H32V32H0z"/>
        <g>
            <path d="M0 0L26.667 0 26.667 26.667 0 26.667z" transform="translate(2.667 2.667)"/>
            <path fill="#242A3E" fill-rule="nonzero" d="M3.333 19.4v3.378c0 .31.245.555.556.555h3.378c.144 0 .289-.055.389-.166l12.133-12.123-4.167-4.166L3.5 19c-.111.111-.167.244-.167.4zM23.011 7.822c.433-.433.433-1.133 0-1.566l-2.6-2.6c-.433-.434-1.133-.434-1.567 0l-2.033 2.033 4.167 4.167 2.033-2.034z" transform="translate(2.667 2.667)"/>
        </g>
    </g>
</svg>
