<?xml version="1.0" encoding="UTF-8"?>
<svg width="20px" height="20px" viewBox="0 0 20 20" version="1.1" xmlns="http://www.w3.org/2000/svg" xmlns:xlink="http://www.w3.org/1999/xlink">
    <!-- Generator: Sketch 52.2 (67145) - http://www.bohemiancoding.com/sketch -->
    <title>Group 40@2x</title>
    <desc>Created with Sketch.</desc>
    <g id="Updated-UI" stroke="none" stroke-width="1" fill="none" fill-rule="evenodd">
        <g id="Add-Collaborator/menu" transform="translate(-489.000000, -809.000000)">
            <g id="Group-40" transform="translate(483.000000, 803.000000)">
                <rect id="Rectangle-Copy-7" x="0" y="0" width="32" height="32"></rect>
                <g id="edit-(2)" transform="translate(2.666667, 2.666667)">
                    <polygon id="Path" points="0 0 26.6666667 0 26.6666667 26.6666667 0 26.6666667"></polygon>
                    <path d="M3.33333333,19.4 L3.33333333,22.7777778 C3.33333333,23.0888889 3.57777778,23.3333333 3.88888889,23.3333333 L7.26666667,23.3333333 C7.41111111,23.3333333 7.55555556,23.2777778 7.65555556,23.1666667 L19.7888889,11.0444444 L15.6222222,6.87777778 L3.5,19 C3.38888889,19.1111111 3.33333333,19.2444444 3.33333333,19.4 Z M23.0111111,7.82222222 C23.4444444,7.38888889 23.4444444,6.68888889 23.0111111,6.25555556 L20.4111111,3.65555556 C19.9777778,3.22222222 19.2777778,3.22222222 18.8444444,3.65555556 L16.8111111,5.68888889 L20.9777778,9.85555556 L23.0111111,7.82222222 Z" id="Shape" fill="#FFFFFF" fill-rule="nonzero"></path>
                </g>
            </g>
        </g>
    </g>
</svg>