<svg xmlns="http://www.w3.org/2000/svg" width="32" height="32" viewBox="0 0 32 32">
    <g fill="none" fill-rule="evenodd">
        <path d="M0 0H32V32H0z"/>
        <path fill="#000" fill-rule="nonzero" d="M27.2 15.6h-4.112c-.379-1.394-1.644-2.36-3.088-2.36-1.444 0-2.71.966-3.088 2.36H4.8c-.442 0-.8.358-.8.8 0 .442.358.8.8.8h12.112c.379 1.394 1.644 2.36 3.088 2.36 1.444 0 2.71-.966 3.088-2.36H27.2c.442 0 .8-.358.8-.8 0-.442-.358-.8-.8-.8zM20 18c-.884 0-1.6-.716-1.6-1.6 0-.884.716-1.6 1.6-1.6.884 0 1.6.716 1.6 1.6 0 .884-.716 1.6-1.6 1.6zM4.8 10h2.512c.379 1.394 1.644 2.36 3.088 2.36 1.444 0 2.71-.966 3.088-2.36H27.2c.442 0 .8-.358.8-.8 0-.442-.358-.8-.8-.8H13.488c-.379-1.394-1.644-2.36-3.088-2.36-1.444 0-2.71.966-3.088 2.36H4.8c-.442 0-.8.358-.8.8 0 .442.358.8.8.8zm5.6-2.4c.884 0 1.6.716 1.6 1.6 0 .884-.716 1.6-1.6 1.6-.884 0-1.6-.716-1.6-1.6 0-.884.716-1.6 1.6-1.6zm16.8 15.2H13.488c-.379-1.394-1.644-2.36-3.088-2.36-1.444 0-2.71.966-3.088 2.36H4.8c-.442 0-.8.358-.8.8 0 .442.358.8.8.8h2.512c.379 1.394 1.644 2.36 3.088 2.36 1.444 0 2.71-.966 3.088-2.36H27.2c.442 0 .8-.358.8-.8 0-.442-.358-.8-.8-.8zm-16.8 2.4c-.884 0-1.6-.716-1.6-1.6 0-.884.716-1.6 1.6-1.6.884 0 1.6.716 1.6 1.6 0 .884-.716 1.6-1.6 1.6z"/>
    </g>
</svg>
