<svg xmlns="http://www.w3.org/2000/svg" xmlns:xlink="http://www.w3.org/1999/xlink" width="60" height="60" viewBox="0 0 60 60">
    <defs>
        <path id="prefix__c" d="M0 0L7.562 0 7.562 14.844 0 14.844z"/>
        <path id="prefix__e" d="M0 0L7.561 0 7.561 14.843 0 14.843z"/>
        <filter id="prefix__a" width="268.8%" height="268.8%" x="-84.4%" y="-46.9%" filterUnits="objectBoundingBox">
            <feOffset dy="12" in="SourceAlpha" result="shadowOffsetOuter1"/>
            <feGaussianBlur in="shadowOffsetOuter1" result="shadowBlurOuter1" stdDeviation="7"/>
            <feColorMatrix in="shadowBlurOuter1" values="0 0 0 0 0 0 0 0 0 0 0 0 0 0 0 0 0 0 0.08 0"/>
        </filter>
        <circle id="prefix__b" cx="16" cy="16" r="16"/>
    </defs>
    <g fill="none" fill-rule="evenodd" transform="translate(14 2)">
        <use fill="#000" filter="url(#prefix__a)" xlink:href="#prefix__b"/>
        <use fill="#FFF" xlink:href="#prefix__b"/>
        <g>
            <g>
                <g transform="rotate(90 8.333 15) translate(0 .018)">
                    <mask id="prefix__d" fill="#fff">
                        <use xlink:href="#prefix__c"/>
                    </mask>
                    <path fill="#000" d="M2.181 6.795h4.12V6.57c0-1.964 0-3.928.002-5.893 0-.488.42-.798.854-.634.25.094.402.318.404.606.002.554 0 1.108 0 1.662v11.766c0 .108-.003.22-.032.324-.082.287-.362.468-.659.44-.3-.03-.549-.276-.564-.577-.011-.212-.005-.425-.005-.637l.001-5.332v-.242h-4.12c.058.063.103.114.15.16.626.616 1.255 1.228 1.877 1.847.364.363.212.933-.276 1.053-.22.054-.422.003-.581-.153-1.06-1.036-2.118-2.073-3.17-3.115-.246-.243-.241-.608.007-.853 1.049-1.038 2.1-2.071 3.157-3.101.255-.249.639-.237.884.005.248.246.249.622-.014.883-.627.623-1.26 1.24-1.89 1.86-.044.043-.084.09-.145.155" mask="url(#prefix__d)"/>
                </g>
                <g transform="rotate(90 8.333 15) translate(10.052 .018)">
                    <mask id="prefix__f" fill="#fff">
                        <use xlink:href="#prefix__e"/>
                    </mask>
                    <path fill="#000" d="M5.397 8.048H1.26v.226c0 1.964 0 3.928-.002 5.893 0 .479-.412.79-.838.637-.257-.092-.417-.312-.42-.594-.003-.534 0-1.069 0-1.603V.762c0-.09-.004-.182.014-.269C.078.188.362-.02.675.001c.317.022.575.278.582.6.009.405.004.81.004 1.217L1.26 6.609v.182h4.122c-.06-.065-.104-.116-.153-.163-.625-.616-1.254-1.227-1.876-1.846-.36-.36-.22-.915.259-1.047.227-.062.434-.013.6.148C5.27 4.92 6.33 5.956 7.381 7c.255.254.232.615-.037.882-.59.586-1.186 1.167-1.78 1.75l-1.238 1.216c-.345.34-.72.375-.997.097-.273-.273-.235-.635.101-.965l1.966-1.931" mask="url(#prefix__f)"/>
                </g>
            </g>
        </g>
    </g>
</svg>
