<svg xmlns="http://www.w3.org/2000/svg" width="20" height="24" viewBox="0 0 20 24">
    <g fill="#242A3E" fill-rule="evenodd">
        <path d="M9.622 12c-3.02 0-5.414-2.424-5.407-5.47.007-2.927 2.438-5.309 5.415-5.305 2.967.003 5.367 2.415 5.362 5.386-.006 2.971-2.417 5.39-5.37 5.39M9.992.013c-3.66-.24-6.772 2.542-6.98 6.302-.196 3.568 2.569 6.73 6.363 6.893 3.5.111 6.631-2.53 6.822-6.294.178-3.507-2.459-6.655-6.206-6.9M19.207 23.66v.334h-1.22v-.356c0-1.669.007-3.337-.002-5.006-.007-1.5-.975-2.674-2.44-2.968-.209-.041-.427-.045-.641-.045-3.533-.002-7.065-.005-10.598 0-1.821.002-3.082 1.272-3.086 3.097-.003 1.64-.001 3.279-.001 4.918v.346H.014c-.004-.077-.012-.17-.012-.262 0-1.718-.005-3.435.002-5.153.01-2.277 1.849-4.144 4.124-4.154 3.68-.015 7.359-.012 11.038.001 1.951.007 3.729 1.602 3.982 3.543.044.336.053.68.054 1.02.006 1.561.005 3.123.005 4.684"/>
    </g>
</svg>
