<?xml version="1.0" encoding="UTF-8"?>
<svg width="24px" height="24px" viewBox="0 0 24 24" version="1.1" xmlns="http://www.w3.org/2000/svg" xmlns:xlink="http://www.w3.org/1999/xlink">
    <!-- Generator: sketchtool 52.2 (67145) - http://www.bohemiancoding.com/sketch -->
    <title>83AAEE81-E63B-4956-B692-2E20618388C7</title>
    <desc>Created with sketchtool.</desc>
    <g id="Symbols" stroke="none" stroke-width="1" fill="none" fill-rule="evenodd">
        <g id="Notification-Icon">
            <g id="Group-48">
                <rect id="Rectangle-Copy-22" x="0" y="0" width="24" height="24"></rect>
                <g id="news-active-copy" transform="translate(4.000000, 2.000000)" fill="#242A3E" fill-rule="nonzero">
                    <path d="M7.77777778,19.4444444 C8.84722222,19.4444444 9.72222222,18.5694444 9.72222222,17.5 L5.83333333,17.5 C5.83333333,18.5694444 6.69861111,19.4444444 7.77777778,19.4444444 Z M13.6111111,13.6111111 L13.6111111,8.75 C13.6111111,5.76527778 12.0166667,3.26666667 9.23611111,2.60555556 L9.23611111,1.94444444 C9.23611111,1.1375 8.58472222,0.486111111 7.77777778,0.486111111 C6.97083333,0.486111111 6.31944444,1.1375 6.31944444,1.94444444 L6.31944444,2.60555556 C3.52916667,3.26666667 1.94444444,5.75555556 1.94444444,8.75 L1.94444444,13.6111111 L0,15.5555556 L0,16.5277778 L15.5555556,16.5277778 L15.5555556,15.5555556 L13.6111111,13.6111111 Z" id="Shape-Copy"></path>
                </g>
            </g>
        </g>
    </g>
</svg>