<svg xmlns="http://www.w3.org/2000/svg" width="24" height="24" viewBox="0 0 24 24">
    <g fill="none" fill-rule="evenodd">
        <path d="M0 0H24V24H0z"/>
        <path fill="#2E344D" d="M18.716 14.502c-.98 0-1.941-.153-2.853-.454-.446-.153-.995-.013-1.268.267l-1.799 1.358c-2.086-1.114-3.372-2.398-4.47-4.469l1.318-1.752c.343-.342.465-.842.318-1.31-.302-.917-.456-1.878-.456-2.858C9.506 4.576 8.93 4 8.222 4H5.284C4.576 4 4 4.576 4 5.284 4 13.398 10.602 20 18.716 20c.708 0 1.284-.576 1.284-1.284v-2.93c0-.708-.576-1.284-1.284-1.284z"/>
    </g>
</svg>
