<?xml version="1.0" encoding="UTF-8"?>
<svg width="18px" height="18px" viewBox="0 0 18 18" version="1.1" xmlns="http://www.w3.org/2000/svg" xmlns:xlink="http://www.w3.org/1999/xlink">
    <!-- Generator: sketchtool 52.2 (67145) - http://www.bohemiancoding.com/sketch -->
    <title>AC4642A4-C4E4-478B-AC7F-89BC3464D687</title>
    <desc>Created with sketchtool.</desc>
    <defs>
        <path d="M0,7.67315973 C0,3.44351035 3.4397344,0 7.67687437,0 C11.9084768,0 15.3546717,3.43797416 15.3546717,7.67315973 C15.3546717,9.59790855 14.6430979,11.3574944 13.4700627,12.7064794 L17.8456411,17.0819151 C18.051453,17.2885995 18.051453,17.632766 17.8456411,17.8403732 C17.7413508,17.9492516 17.6029123,18 17.4663197,18 C17.33065,18 17.1894428,17.9437154 17.0869983,17.8403732 L12.7114199,13.4658602 C11.3611834,14.6413779 9.60024611,15.3490876 7.67687437,15.3490876 C3.44434902,15.3490876 0,11.9046545 0,7.67315973 Z M1.07335957,7.67315973 C1.07335957,11.3159729 4.03409688,14.2759893 7.67225975,14.2759893 C11.3131914,14.2759893 14.2730058,11.309514 14.2730058,7.67315973 C14.2730058,4.03865081 11.3131914,1.07678901 7.67225975,1.07678901 C4.03409688,1.07678901 1.07335957,4.03496002 1.07335957,7.67315973 Z" id="path-1"></path>
    </defs>
    <g id="Updated-UI" stroke="none" stroke-width="1" fill="none" fill-rule="evenodd">
        <g id="Homepage---Dashboard_v1" transform="translate(-701.000000, -29.000000)">
            <g id="Group-Copy-3" transform="translate(701.000000, 29.000000)">
                <mask id="mask-2" fill="white">
                    <use xlink:href="#path-1"></use>
                </mask>
                <g id="Clip-188"></g>
                <polygon id="Fill-187" fill="#0A163E" mask="url(#mask-2)" points="-4.64516129 22.6451613 22.6451613 22.6451613 22.6451613 -4.64516129 -4.64516129 -4.64516129"></polygon>
            </g>
        </g>
    </g>
</svg>