<?xml version="1.0" encoding="UTF-8"?>
<svg width="20px" height="12px" viewBox="0 0 20 12" version="1.1" xmlns="http://www.w3.org/2000/svg" xmlns:xlink="http://www.w3.org/1999/xlink">
    <!-- Generator: Sketch 52.2 (67145) - http://www.bohemiancoding.com/sketch -->
    <title>Group 34@2x</title>
    <desc>Created with Sketch.</desc>
    <defs>
        <polygon id="path-1" points="3.92156863e-05 0.0863529412 19.6086275 0.0863529412 19.6086275 11.3722353 3.92156863e-05 11.3722353"></polygon>
    </defs>
    <g id="Updated-UI" stroke="none" stroke-width="1" fill="none" fill-rule="evenodd">
        <g id="Add-Collaborator/menu" transform="translate(-887.000000, -945.000000)">
            <g id="Group-34" transform="translate(885.000000, 939.000000)">
                <rect id="Rectangle" x="0" y="0" width="24" height="24"></rect>
                <g id="Group-6" transform="translate(2.000000, 6.000000)">
                    <path d="M9.80298039,4.03929412 C8.70101961,4.03929412 7.80690196,4.93341176 7.80690196,6.03537255 C7.80690196,7.13694118 8.70101961,8.03498039 9.80298039,8.03498039 C10.9049412,8.03498039 11.8029804,7.13694118 11.8029804,6.03537255 C11.8029804,4.93341176 10.9049412,4.03929412 9.80298039,4.03929412" id="Fill-1" fill="#FFFFFF"></path>
                    <g id="Group-5" transform="translate(0.000000, 0.305882)">
                        <mask id="mask-2" fill="white">
                            <use xlink:href="#path-1"></use>
                        </mask>
                        <g id="Clip-4"></g>
                        <path d="M9.80298039,9.61576471 C7.66180392,9.61576471 5.92062745,7.87458824 5.92062745,5.7294902 C5.92062745,3.58831373 7.66180392,1.84713725 9.80298039,1.84713725 C11.9480784,1.84713725 13.6892549,3.58831373 13.6892549,5.7294902 C13.6892549,7.87458824 11.9480784,9.61576471 9.80298039,9.61576471 M19.5206275,5.48635294 C19.3441569,5.2667451 15.1284706,0.0863529412 9.80298039,0.0863529412 C4.4774902,0.0863529412 0.261803922,5.2667451 0.0853333333,5.48635294 C-0.0283921569,5.62752941 -0.0283921569,5.83145098 0.0853333333,5.97654902 C0.261803922,6.19615686 4.4774902,11.3722353 9.80298039,11.3722353 C15.1284706,11.3722353 19.3441569,6.19615686 19.5206275,5.97654902 C19.6382745,5.83145098 19.6382745,5.62752941 19.5206275,5.48635294" id="Fill-3" fill="#FFFFFF" mask="url(#mask-2)"></path>
                    </g>
                </g>
            </g>
        </g>
    </g>
</svg>