<?xml version="1.0" encoding="UTF-8"?>
<svg width="24px" height="24px" viewBox="0 0 24 24" version="1.1" xmlns="http://www.w3.org/2000/svg" xmlns:xlink="http://www.w3.org/1999/xlink">
    <!-- Generator: sketchtool 52.2 (67145) - http://www.bohemiancoding.com/sketch -->
    <title>4D5F525C-5B3D-4E98-B08C-6E5E1B7BB56D</title>
    <desc>Created with sketchtool.</desc>
    <g id="Symbols" stroke="none" stroke-width="1" fill="none" fill-rule="evenodd">
        <g id="Wallet-Icon">
            <g>
                <rect id="Rectangle" x="0" y="0" width="24" height="24"></rect>
                <path d="M20.0526316,18 L20.0526316,19 C20.0526316,20.1 19.2,21 18.1578947,21 L4.89473684,21 C3.84315789,21 3,20.1 3,19 L3,5 C3,3.9 3.84315789,3 4.89473684,3 L18.1578947,3 C19.2,3 20.0526316,3.9 20.0526316,5 L20.0526316,6 L11.5263158,6 C10.4747368,6 9.63157895,6.9 9.63157895,8 L9.63157895,16 C9.63157895,17.1 10.4747368,18 11.5263158,18 L20.0526316,18 Z M11.5263158,16 L21,16 L21,8 L11.5263158,8 L11.5263158,16 Z M15.3157895,13.5 C14.5294737,13.5 13.8947368,12.83 13.8947368,12 C13.8947368,11.17 14.5294737,10.5 15.3157895,10.5 C16.1021053,10.5 16.7368421,11.17 16.7368421,12 C16.7368421,12.83 16.1021053,13.5 15.3157895,13.5 Z" id="Shape-Copy-3" fill="#242A3E" fill-rule="nonzero"></path>
            </g>
        </g>
    </g>
</svg>